<svg width="493" height="648" version="1.1" viewBox="0 0 492.75048 647.9101" xml:space="preserve" xmlns="http://www.w3.org/2000/svg"><defs><clipPath id="clipPath18"><path d="m137 23.4h547v547h-547z"/></clipPath></defs><g transform="matrix(-1.33 0 0 -1.33 855 730)"><g clip-path="url(#clipPath18)"><g transform="translate(388 287)"><path d="m0 0-0.037 1.68c4e-3 0.563-0.069 1.11 0.031 1.7 0.156 1.14 0.191 2.34 0.534 3.44l0.421 1.68c0.166 0.553 0.397 1.08 0.593 1.62 0.216 0.535 0.387 1.1 0.643 1.61l0.785 1.54c2.17 4.08 5.15 7.66 8.4 10.9 3.27 3.21 6.85 6.05 10.5 8.7 3.7 2.65 7.53 5.1 11.5 7.35 7.84 4.54 15.9 8.56 24.1 12.3 8.19 3.75 16.5 7.22 24.6 10.9 2.01 0.926 4.01 1.84 5.92 2.83 1.98 1.03 4.03 2.02 5.94 3.09 1.91 1.08 3.83 2.11 5.73 3.22l5.66 3.43c7.48 4.7 14.6 9.89 21.5 15.4 6.86 5.55 13.4 11.5 19.5 17.9 6.1 6.36 11.9 13 17.2 20 2.66 3.48 5.22 7.15 7.65 10.7l1.84 2.81 0.92 1.41 0.84 1.4c1.11 1.88 2.28 3.69 3.32 5.64 4.3 7.68 8.22 15.6 11.6 23.8l1.25 3.07 1.17 3.1 1.14 3.04c0.339 1.06 0.727 2.15 1.03 3.18 0.279 1.03 0.587 2.02 0.847 3.08 0.25 1.06 0.529 2.12 0.758 3.19 0.47 2.14 0.896 4.31 1.29 6.5 1.59 8.74 2.68 17.8 5.31 26.6 0.678 2.2 1.43 4.4 2.37 6.53l0.725 1.59 0.182 0.398 0.106 0.223 0.098 0.187 0.392 0.749c0.602 1.1 1.23 2.1 2.05 3.11 0.426 0.495 0.87 0.985 1.44 1.43 0.551 0.444 1.21 0.865 2.03 1.1 0.805 0.248 1.75 0.268 2.56 0.031 0.821-0.229 1.49-0.643 2.05-1.09 1.11-0.902 1.84-1.94 2.5-2.97 0.642-1.04 1.17-2.1 1.65-3.17 1.88-4.28 3.05-8.68 4.06-13.1 0.979-4.44 1.8-8.88 2.22-13.4 0.05-0.573 0.086-1.15 0.107-1.74 0.011-0.295 0.014-0.594 0.011-0.902l-0.011-0.841-0.047-3.36c1e-3 -2.23-0.147-4.51-0.236-6.77-0.028-0.566-0.042-1.13-0.083-1.7l-0.155-1.7-0.298-3.39c-0.23-2.26-0.672-4.5-0.999-6.75-0.099-0.625-0.232-1.11-0.36-1.68-0.153-0.562-0.294-1.16-0.458-1.69-0.315-1.1-0.653-2.18-0.993-3.25-0.681-2.14-1.38-4.26-2-6.39-0.618-2.12-1.17-4.25-1.45-6.36-0.164-1.06-0.19-2.09-0.155-3.08l0.096-0.703 0.071-0.572c-0.012-0.18 0.074-0.118-0.053-0.783-0.283-0.963-0.817-1.23-1.02-1.43-0.248-0.175-0.294-0.294-0.184-0.103l-2.6 1.06c0.69 2.1 1.59 4.09 2.68 6 1.09 1.9 2.35 3.71 3.89 5.35 1.54 1.62 3.35 3.1 5.56 4.05 1.09 0.497 2.31 0.76 3.54 0.899l1.7 0.013c0.232 0.02 0.599-0.051 0.91-0.091l0.969-0.15c2.47-0.495 4.69-1.93 6.25-3.76 1.57-1.83 2.6-3.92 3.39-6.01 0.779-2.1 1.31-4.23 1.73-6.35 0.212-1.06 0.393-2.12 0.555-3.18l0.071-0.478 0.044-0.389 0.086-0.78 0.172-1.56 0.081-0.784 0.027-0.842 0.052-1.69c0.069-1.14-0.041-2.22-0.081-3.32-0.022-1.1-0.183-2.19-0.318-3.28-0.108-1.1-0.318-2.17-0.537-3.25-0.109-0.537-0.201-1.08-0.327-1.61l-0.419-1.59-0.425-1.59-0.513-1.55-0.516-1.55-0.594-1.52c-0.389-1.02-0.795-2.03-1.26-3-0.443-0.99-0.885-1.98-1.39-2.93-0.489-0.963-0.963-1.94-1.5-2.87-1.03-1.9-2.13-3.74-3.26-5.55-2.27-3.63-4.69-7.12-7.14-10.5l-3.59 4.51c1.75 0.814 3.53 1.9 5.48 2.98 1.97 1.06 4.07 2.24 6.84 2.83 0.717 0.109 1.41 0.255 2.19 0.227 0.383-6e-3 0.759 0.023 1.15-0.031l1.16-0.186c0.772-0.131 1.5-0.455 2.23-0.726 0.643-0.365 1.36-0.71 1.92-1.15 0.537-0.442 1.16-0.87 1.6-1.36l0.689-0.724 0.342-0.365 0.171-0.184 0.269-0.356 0.953-1.31c0.381-0.664 0.747-1.35 1.09-2.04 1.14-2.58 1.46-5.38 1.26-7.96-0.203-2.58-0.851-4.98-1.67-7.22-0.823-2.24-1.83-4.33-2.9-6.34-0.536-1-1.09-1.98-1.65-2.93l-0.421-0.717-0.508-0.793-0.878-1.36-1.76-2.72c-0.551-0.902-1.32-1.82-1.97-2.73-1.37-1.81-2.71-3.68-4.17-5.33-1.45-1.68-2.82-3.44-4.38-5.02l-2.28-2.42c-0.757-0.81-1.52-1.62-2.33-2.37-1.61-1.52-3.18-3.09-4.83-4.57-1.69-1.44-3.35-2.91-5.06-4.34l-5.3-4.08-5.58-3.77-2.31 7.42c1.76 0.108 3.55 0.295 5.5 0.467 1.95 0.143 4.07 0.363 6.7-0.092 0.63-0.077 1.35-0.334 2.02-0.544 0.678-0.264 1.38-0.604 2.02-0.996 0.607-0.441 1.28-0.868 1.76-1.4l0.756-0.788c0.251-0.266 0.414-0.54 0.622-0.813l0.577-0.83c0.177-0.276 0.303-0.544 0.455-0.818 0.285-0.545 0.598-1.11 0.784-1.63 0.209-0.53 0.437-1.07 0.619-1.6l0.474-1.55 0.116-0.389 0.029-0.097 0.014-0.049 0.054-0.222 0.037-0.172 0.151-0.687c0.05-0.245 0.102-0.421 0.15-0.723l0.135-0.95 0.116-0.95 0.042-0.868c0.037-0.58 0.045-1.16 0.012-1.73-0.073-2.3-0.495-4.53-1.14-6.63-1.3-4.2-3.39-7.86-5.71-11.2l-0.441-0.615-0.222-0.308-0.11-0.154-0.213-0.28-0.879-1.1-1.76-2.2c-0.303-0.367-0.561-0.727-0.904-1.1l-1.04-1.12-2.09-2.23c-0.69-0.771-1.41-1.42-2.13-2.09l-2.15-2.02c-1.44-1.34-2.97-2.53-4.46-3.8-1.51-1.23-3.07-2.37-4.61-3.56-1.56-1.15-3.15-2.23-4.72-3.35l-4.79-3.18-4.84-3.04-3.01 8.1 2.05 0.211c0.693 0.02 1.4-7e-3 2.1-0.025 0.703-0.06 1.41-0.179 2.11-0.286 0.7-0.168 1.4-0.361 2.09-0.577 0.68-0.285 1.37-0.538 2.02-0.892 0.641-0.394 1.31-0.715 1.89-1.22 0.599-0.47 1.2-0.938 1.7-1.52 0.261-0.281 0.528-0.559 0.775-0.854l0.672-0.952c0.887-1.28 1.47-2.75 1.88-4.25 0.149-0.752 0.277-1.52 0.343-2.28 2e-3 -0.75 0.048-1.52-0.038-2.25-0.109-0.719-0.169-1.48-0.364-2.16-0.2-0.676-0.366-1.39-0.629-2.03l-0.409-0.945-0.209-0.471-0.106-0.234-0.054-0.118-0.013-0.029-0.168-0.302-0.024-0.043c-0.287-0.457-0.518-0.858-0.851-1.36-0.484-0.645-1.01-1.31-1.53-1.89-0.492-0.473-0.987-0.95-1.49-1.4l-1.57-1.2-1.61-1.01c-1.09-0.609-2.18-1.16-3.29-1.62-0.552-0.255-1.11-0.442-1.66-0.648-0.555-0.213-1.11-0.396-1.66-0.56-1.11-0.36-2.22-0.638-3.34-0.902-1.11-0.256-2.23-0.465-3.35-0.653-2.24-0.352-4.48-0.577-6.78-0.646l0.961 8.2c1.19-0.345 2.37-0.699 3.59-1.19 1.22-0.491 2.48-1.05 3.8-1.94 0.653-0.43 1.35-1.01 2.03-1.74 0.676-0.757 1.35-1.78 1.72-3.06 0.386-1.27 0.339-2.74 0.011-3.85-0.318-1.13-0.81-2.01-1.31-2.75-1.02-1.42-2.08-2.38-3.14-3.24-1.06-0.843-2.11-1.55-3.16-2.19-2.11-1.28-4.23-2.35-6.37-3.32-4.27-1.93-8.59-3.5-13-4.89-2.2-0.686-4.4-1.32-6.66-1.88-1.13-0.281-2.27-0.545-3.45-0.777-1.2-0.225-2.34-0.449-3.87-0.538l-0.084 7.34c1.27-0.074 2.53-0.15 3.89-0.434 1.35-0.286 2.78-0.666 4.33-1.59 0.374-0.199 0.787-0.548 1.16-0.836 0.387-0.379 0.766-0.714 1.1-1.21 0.692-0.906 1.18-2.17 1.25-3.36 0.083-1.18-0.139-2.29-0.487-3.16-0.347-0.878-0.783-1.64-1.26-2.27-0.955-1.29-2.03-2.26-3.16-3.07-1.13-0.814-2.32-1.47-3.55-2.01-1.23-0.537-2.51-0.943-3.82-1.22-0.323-0.081-0.658-0.125-0.988-0.184l-0.249-0.043-0.123-0.021-0.228-0.028-0.417-0.041-1.66-0.169c-0.569-0.047-1.08-0.131-1.7-0.148l-1.82-0.069-1.82-0.062-1.75 0.039c-1.17 0.025-2.33 0.038-3.49 0.143-1.15 0.099-2.32 0.13-3.46 0.287-1.15 0.139-2.3 0.252-3.44 0.426l-3.41 0.559-3.39 0.692-3.37 0.834 2.05 5.32c1.02-0.588 2.04-1.19 3.1-2.1 0.526-0.485 1.07-0.995 1.57-1.82 0.495-0.729 0.967-2.07 0.712-3.4-0.244-1.33-0.979-2.24-1.6-2.84-0.626-0.559-1.26-0.981-1.84-1.28-1.19-0.634-2.31-1.02-3.42-1.35-2.22-0.634-4.4-0.991-6.62-1.2-1.12-0.098-2.22-0.166-3.45-0.122l-0.23 0.011-0.199 0.012-0.097 0.01-0.388 0.04-0.777 0.081c-0.522 0.058-1.02 0.096-1.56 0.173-1.1 0.189-2.24 0.342-3.3 0.575-1.05 0.248-2.12 0.436-3.15 0.736-2.08 0.54-4.13 1.16-6.13 1.85-2.02 0.673-4 1.44-5.96 2.22-0.989 0.383-1.97 0.827-2.91 1.22-0.955 0.405-1.93 0.866-2.89 1.3-1.92 0.902-3.8 1.82-5.67 2.8-1.87 0.967-3.72 1.96-5.54 3.01-1.83 1.03-3.63 2.13-5.42 3.22-1.77 1.13-3.54 2.27-5.26 3.48-0.875 0.582-1.72 1.22-2.56 1.84-0.851 0.618-1.69 1.25-2.51 1.91-1.66 1.29-3.25 2.67-4.81 4.09l-2.26 2.21-2.13 2.34-1.96 2.49c-0.599 0.872-1.16 1.77-1.74 2.65l0.698 0.437c0.625-0.817 1.23-1.65 1.86-2.45l2.06-2.28 2.22-2.14 2.34-2c1.6-1.29 3.22-2.56 4.92-3.73 0.829-0.608 1.69-1.18 2.55-1.74 0.861-0.564 1.71-1.14 2.6-1.66 1.75-1.09 3.54-2.11 5.33-3.12 1.82-0.98 3.63-1.96 5.48-2.87 1.84-0.929 3.71-1.8 5.58-2.65 1.87-0.851 3.77-1.66 5.67-2.43 0.955-0.373 1.88-0.767 2.85-1.13 0.991-0.364 1.93-0.742 2.9-1.07 1.93-0.681 3.87-1.33 5.83-1.89 1.95-0.581 3.92-1.08 5.89-1.5 0.984-0.241 1.97-0.364 2.96-0.554 0.984-0.172 1.91-0.245 2.87-0.38 0.491-0.048 1.03-0.067 1.54-0.102l0.778-0.047 0.391-0.023 0.096-5e-3c0.085-6e-3 -0.088 5e-3 -0.063 4e-3h0.019l0.04 1e-3h0.16c0.855-1e-3 1.83 0.087 2.78 0.207 1.91 0.251 3.85 0.65 5.61 1.23 0.872 0.287 1.71 0.632 2.35 1.01 0.335 0.183 0.551 0.379 0.701 0.511 0.11 0.129 6e-3 0.111-0.063-0.189-0.074-0.307 0.089-0.571-6e-3 -0.45-0.034 0.064-0.255 0.282-0.5 0.489-0.545 0.435-1.33 0.884-2.13 1.3l-18.3 9.56 20.3-4.24 3.15-0.658 3.19-0.531 3.21-0.406c1.07-0.123 2.15-0.187 3.22-0.291 1.07-0.118 2.14-0.111 3.22-0.174 1.07-0.069 2.14-0.047 3.2-0.041l1.6 0.01 1.52 0.097 1.52 0.091c0.499 0.022 1.09 0.13 1.63 0.191l1.66 0.216 0.415 0.052 0.052 8e-3 0.026 3e-3 0.012 2e-3c0.033 4e-3 -0.223-0.03-0.11-0.016l0.082 0.018 0.163 0.034c0.218 0.049 0.438 0.077 0.652 0.143 0.866 0.211 1.72 0.509 2.52 0.89 0.805 0.38 1.56 0.836 2.23 1.35 0.668 0.505 1.23 1.09 1.59 1.61 0.387 0.52 0.404 0.962 0.366 0.773 0-0.073 0.064-0.256 0.074-0.281 0.041-0.022-0.031-0.01-0.025 0.015-0.087 0.027-0.082 0.074-0.211 0.122-0.379 0.212-1.13 0.452-1.96 0.589-0.834 0.153-1.8 0.196-2.76 0.234l-0.084 7.34c0.701 0.052 1.76 0.248 2.75 0.462 1.01 0.221 2.04 0.482 3.07 0.76 2.07 0.56 4.14 1.2 6.19 1.89 4.1 1.39 8.16 2.97 12 4.8 1.91 0.914 3.76 1.9 5.45 2.98 0.837 0.536 1.63 1.1 2.31 1.66 0.671 0.558 1.23 1.16 1.5 1.56 0.12 0.192 0.146 0.312 0.13 0.258-0.02-0.039-0.058-0.342 7e-3 -0.548 0.051-0.209 0.126-0.264 0.06-0.189-0.099 0.08-0.245 0.237-0.531 0.41-0.529 0.351-1.32 0.725-2.17 1.05-0.854 0.331-1.82 0.609-2.78 0.877l-25 6.99 25.9 1.21c0.936 0.044 1.88 0.113 2.83 0.214 0.95 0.104 1.9 0.241 2.84 0.394 0.94 0.171 1.87 0.356 2.79 0.578 0.915 0.23 1.83 0.467 2.7 0.762 0.445 0.134 0.88 0.284 1.3 0.453 0.421 0.163 0.857 0.31 1.25 0.504 0.824 0.346 1.58 0.751 2.31 1.16l1.03 0.661 0.914 0.712 0.781 0.752c0.164 0.208 0.281 0.366 0.462 0.524 0.243 0.365 0.531 0.874 0.792 1.3l0.026 0.041 6e-3 0.011c-0.308-0.552-0.083-0.149-0.151-0.27l6e-3 0.016 0.025 0.062 0.049 0.125 0.102 0.248 0.214 0.491c0.137 0.327 0.175 0.648 0.287 0.965 0.101 0.32 0.077 0.619 0.145 0.927 0.042 0.304-0.016 0.582 9e-3 0.873l-0.132 0.814c-0.174 0.504-0.343 1-0.671 1.43-0.081 0.107-0.155 0.217-0.226 0.332l-0.29 0.291c-0.165 0.22-0.412 0.372-0.632 0.551-0.196 0.207-0.509 0.292-0.741 0.469-0.259 0.146-0.565 0.231-0.836 0.374l-0.924 0.256-0.987 0.133-1.04 0.014c-0.355-0.045-0.709-0.08-1.07-0.106l-18-1.33 15 9.43 4.69 2.94 4.59 3.04c1.49 1.05 3 2.08 4.46 3.16 1.43 1.11 2.91 2.17 4.3 3.31 1.36 1.17 2.8 2.28 4.11 3.49l1.96 1.83c0.652 0.611 1.33 1.21 1.89 1.84l1.77 1.87 0.89 0.929c0.298 0.312 0.596 0.711 0.893 1.06l1.79 2.17 0.894 1.09 0.675 0.914c2.02 2.79 3.69 5.73 4.65 8.7 0.476 1.48 0.766 2.96 0.833 4.42 0.031 0.364 0.029 0.725 9e-3 1.08l-0.014 0.538-0.051 0.447-0.039 0.446c-0.015 0.162-0.086 0.441-0.126 0.656l-0.141 0.689-0.036 0.172-3e-3 0.021c-0.012 0.046 0.075-0.323 0.036-0.158l-0.011 0.036-0.021 0.071-0.084 0.285c-0.392 1.58-0.981 2.96-1.57 3.83-0.648 0.855-0.947 1.11-2.04 1.35-1.07 0.223-2.73 0.178-4.52 0.045-1.79-0.133-3.74-0.311-5.72-0.405l-14.7-0.699 12.4 8.12 5.19 3.4 5 3.74 4.82 4.02c1.58 1.37 3.08 2.84 4.62 4.26 0.783 0.699 1.51 1.46 2.23 2.21l2.19 2.26c1.5 1.47 2.8 3.11 4.19 4.67 1.43 1.56 2.62 3.19 3.88 4.8l0.941 1.21c0.317 0.392 0.63 0.804 0.926 1.27l1.81 2.68 0.906 1.34 0.378 0.559 0.412 0.671c0.548 0.894 1.08 1.78 1.58 2.67 1 1.78 1.89 3.57 2.59 5.36 0.699 1.79 1.2 3.6 1.37 5.31 0.167 1.71-4e-3 3.33-0.564 4.72-0.144 0.272-0.266 0.55-0.371 0.848l-0.912 1.33-0.688 0.775c-0.268 0.331-0.567 0.491-0.836 0.761-1.13 0.904-2.1 1.07-3.58 0.884-1.48-0.239-3.27-1.08-5.1-2.02-1.85-0.953-3.8-2.05-6-2.98l-10.5-4.48 6.95 8.99c2.54 3.29 5.02 6.59 7.31 9.98 1.14 1.7 2.25 3.41 3.28 5.16 0.541 0.865 1.01 1.76 1.51 2.64 0.506 0.881 0.947 1.79 1.39 2.69 0.467 0.898 0.873 1.82 1.27 2.74l0.601 1.38 0.522 1.41 0.524 1.41 0.438 1.43 0.437 1.43c0.132 0.48 0.229 0.967 0.347 1.45 0.234 0.969 0.467 1.94 0.591 2.92 0.151 0.981 0.334 1.96 0.38 2.96 0.065 0.985 0.204 1.99 0.168 2.95l7e-3 1.45 4e-3 0.728c-8e-3 0.251-0.037 0.519-0.054 0.777l-0.123 1.56-0.062 0.783-0.031 0.39-0.038 0.3c-0.124 1.02-0.264 2.02-0.43 3.02-0.332 1.99-0.761 3.95-1.38 5.8-0.62 1.84-1.44 3.58-2.57 4.97-1.11 1.39-2.58 2.36-4.21 2.75l-0.579 0.116c-0.205 0.034-0.35 0.112-0.643 0.101l-1.44 0.042c-0.849-0.083-1.71-0.217-2.54-0.57-1.67-0.647-3.22-1.8-4.58-3.19-1.36-1.4-2.54-3.01-3.55-4.72-1.02-1.72-1.88-3.54-2.53-5.4l-2.6 1.06c0.383 0.693 0.806 0.91 0.994 1.08l0.122 0.093c8e-3 0.011 0.017 0.019 0.028 0.025 0.024 0.014-0.039-0.032-0.041-0.056-0.011-0.022 2e-3 -0.016-0.025-0.064-0.026-0.048-0.047-0.104-0.057-0.162l-0.148 1.27c-0.031 1.25 0.039 2.47 0.236 3.63 0.367 2.33 0.97 4.54 1.61 6.72 0.648 2.18 1.36 4.31 2.05 6.44 0.346 1.06 0.683 2.12 0.993 3.17 0.166 0.534 0.284 1.03 0.431 1.55 0.119 0.52 0.28 1.12 0.353 1.6 0.327 2.18 0.77 4.35 1.01 6.54l0.31 3.31c0.118 1.1 0.196 2.2 0.216 3.32 0.068 2.22 0.197 4.42 0.179 6.67l0.019 3.36 5e-3 0.84-0.016 0.778c-0.024 0.529-0.062 1.07-0.114 1.61-0.435 4.36-1.25 8.75-2.29 13-1.08 4.28-2.35 8.56-4.17 12.5-0.906 1.9-2.03 3.84-3.36 4.88-0.323 0.245-0.641 0.408-0.904 0.471-0.267 0.061-0.483 0.052-0.746-0.037-0.527-0.168-1.2-0.785-1.77-1.53-0.571-0.753-1.1-1.68-1.54-2.56l-0.358-0.753-0.09-0.19c-0.028-0.057-0.014-0.029-0.029-0.066l-0.038-0.093-0.151-0.374-0.61-1.49c-0.79-2-1.42-4.08-1.98-6.18-2.17-8.47-2.91-17.4-4.18-26.3-0.633-4.51-1.34-8.94-2.5-13.6-0.284-1.13-0.606-2.17-0.908-3.26l-1.08-3.31-1.07-3.24-1.18-3.2c-3.18-8.52-6.83-16.9-11.2-24.9-1.03-2.02-2.25-4.01-3.38-6.02l-0.865-1.5-0.89-1.43-1.78-2.85c-2.51-3.92-5.1-7.6-7.86-11.3-5.5-7.28-11.4-14.2-17.8-20.7-6.4-6.49-13.2-12.6-20.3-18.3-7.12-5.68-14.6-10.9-22.4-15.5l-5.92-3.42c-2-1.11-4.04-2.16-6.06-3.24-2.03-1.07-4.03-1.99-6.05-2.99-2.09-1.05-4.2-1.92-6.29-2.8-8.37-3.44-16.7-6.61-24.9-10.1-8.23-3.43-16.4-7.01-24.2-11.1-7.86-4.1-15.5-8.69-22.2-14.4-3.31-2.88-6.35-6.1-8.63-9.81l-0.843-1.4c-0.279-0.469-0.471-0.976-0.713-1.46-0.222-0.495-0.481-0.98-0.676-1.49l-0.512-1.55c-0.41-1.03-0.502-2.09-0.741-3.15-0.14-0.518-0.11-1.1-0.155-1.66l-0.089-1.68z" fill="#007ace"/></g><g transform="translate(381 331)"><path d="m0 0c8e-3 0.438-0.046 0.854 0.012 1.31 0.071 0.449 0.093 0.937 0.23 1.36 0.204 0.879 0.519 1.72 0.883 2.54 0.726 1.64 1.68 3.14 2.71 4.57 2.05 2.88 4.42 5.48 6.89 7.96 4.94 4.97 10.3 9.44 15.7 13.8 2.71 2.18 5.48 4.27 8.23 6.38 1.37 1.05 2.74 2.1 4.06 3.15l4.05 3.25c5.32 4.35 10.6 8.69 15.4 13.5 4.82 4.78 9.45 9.75 13.4 15.2l1.53 2.02c0.492 0.688 0.945 1.41 1.42 2.11 0.934 1.41 1.88 2.82 2.84 4.22l2.69 4.38c0.939 1.48 1.7 2.95 2.55 4.42 0.839 1.46 1.66 2.95 2.45 4.46 0.787 1.51 1.63 3 2.37 4.53l2.24 4.6 2.13 4.66c0.733 1.55 1.37 3.13 2.03 4.71 0.651 1.58 1.34 3.15 1.92 4.76l1.83 4.8 1.67 4.86c2.13 6.51 4 13.1 5.45 19.8 1.47 6.71 2.47 13.5 3.15 20.4 0.222 3.43 0.494 6.86 0.525 10.3 0.044 1.73 0.112 3.43 0.03 5.14-0.07 1.68-0.221 3.42-0.354 5.14-0.276 3.45-0.586 6.91-0.649 10.4-0.053 3.5-0.023 7.07 1.03 10.6 0.586 1.8 1.34 3.42 2.6 4.98 0.617 0.758 1.44 1.5 2.56 1.91 1.13 0.414 2.44 0.27 3.43-0.169 2-0.907 3.25-2.38 4.39-3.81 1.12-1.46 2.05-2.99 2.91-4.55 0.858-1.56 1.64-3.15 2.36-4.77 0.187-0.423 0.348-0.761 0.542-1.26l0.477-1.21c0.309-0.815 0.654-1.58 0.921-2.46l0.844-2.58 0.686-2.58c0.246-0.859 0.409-1.73 0.588-2.61 0.166-0.875 0.388-1.74 0.496-2.63 0.606-3.52 0.845-7.08 0.925-10.7 0.029-3.58-0.249-7.15-0.768-10.7-0.603-3.54-1.41-7.08-2.64-10.5-1.26-3.41-2.85-6.73-4.84-9.86l-4.56 3.04c0.733 1.18 1.51 2.69 2.28 4.13 0.774 1.46 1.56 2.94 2.38 4.42 1.64 2.96 3.39 5.91 5.56 8.75 1.1 1.41 2.29 2.81 3.8 4.09 0.385 0.318 0.759 0.638 1.21 0.93l0.65 0.441 0.728 0.4c0.461 0.278 1.05 0.476 1.59 0.689 0.592 0.163 1.19 0.341 1.85 0.386 1.31 0.169 2.69-0.112 3.9-0.575 0.554-0.27 1.14-0.554 1.62-0.892 0.446-0.347 0.976-0.686 1.33-1.07 0.368-0.379 0.805-0.757 1.1-1.15l0.476-0.594 0.236-0.297 0.118-0.15 0.029-0.037 0.12-0.18 0.042-0.065 0.336-0.523c0.119-0.2 0.204-0.286 0.356-0.593 0.261-0.516 0.577-1.09 0.75-1.58 0.79-1.98 1.09-4.05 1.09-6.01 4e-3 -1.97-0.27-3.85-0.682-5.65-0.841-3.59-2.21-6.87-3.77-9.99-1.6-3.1-3.39-6.05-5.32-8.87-1.94-2.83-3.99-5.55-6.22-8.18l-4.58 4.72c1.88 1.5 3.81 3.1 5.94 4.55 1.06 0.734 2.17 1.45 3.36 2.11 1.19 0.658 2.47 1.27 3.93 1.73 1.44 0.459 3.18 0.763 5.09 0.459 1.93-0.287 3.82-1.47 4.97-2.83 1.17-1.37 1.84-2.82 2.33-4.19 0.233-0.687 0.454-1.38 0.605-2.04l0.117-0.504 0.059-0.253 0.03-0.126 0.013-0.063 9e-3 -0.032 0.042-0.236 0.121-0.902 0.122-0.902c0.024-0.367 0.03-0.796 0.036-1.19l3e-3 -1.21c-0.022-0.382-0.076-0.73-0.117-1.1l-0.135-1.08c-0.062-0.355-0.156-0.699-0.234-1.05l-0.254-1.04c-0.097-0.341-0.225-0.665-0.337-0.998-0.226-0.666-0.466-1.32-0.765-1.93-0.283-0.626-0.563-1.25-0.9-1.83-0.629-1.2-1.34-2.31-2.08-3.38-0.741-1.08-1.53-2.09-2.33-3.09-0.808-0.986-1.63-1.94-2.47-2.87-1.67-1.85-3.39-3.61-5.03-5.34l-3.95 3.89 1.34 1.13c0.481 0.343 0.961 0.689 1.45 1.02 0.522 0.296 1.04 0.596 1.57 0.877 0.56 0.241 1.11 0.491 1.68 0.71 0.593 0.176 1.18 0.365 1.78 0.509l0.925 0.149c0.309 0.042 0.613 0.108 0.926 0.124 0.628 0.014 1.26 0.04 1.88 0.019l1.86-0.239 1.89-0.242 0.171-1.88 0.189-2.06c0.03-0.69 4e-3 -1.39 3e-3 -2.08-0.023-0.692-0.127-1.38-0.192-2.07-0.086-0.686-0.252-1.36-0.381-2.03-0.154-0.668-0.371-1.32-0.557-1.97-0.217-0.644-0.473-1.27-0.709-1.9l-0.835-1.82-0.938-1.73-1.01-1.66-1.06-1.6c-0.721-1.04-1.45-2.06-2.19-3.06l-2.2-2.96c-0.72-0.977-1.42-1.96-2.1-2.94l-2.69 2.64c0.388 0.215 0.784 0.439 1.17 0.628l1.14 0.45c0.741 0.246 1.47 0.45 2.18 0.622l2.04 0.488c0.337 0.08 0.625 0.169 0.94 0.252 0.307 0.086 0.546 0.187 0.825 0.276l1.84 0.577 0.435-1.48 0.747-2.56c0.129-0.876 0.272-1.75 0.372-2.62 5e-3 -0.877 0.045-1.76 9e-3 -2.62-0.106-0.862-0.165-1.73-0.32-2.58-0.202-0.836-0.366-1.68-0.62-2.5-0.291-0.801-0.536-1.62-0.869-2.4-0.361-0.765-0.685-1.55-1.08-2.29-0.422-0.727-0.815-1.47-1.26-2.18-0.472-0.689-0.93-1.39-1.42-2.06l-1.55-1.95-1.68-1.83-1.8-1.7-1.9-1.58c-0.66-0.492-1.35-0.95-2.02-1.42-0.692-0.443-1.41-0.848-2.11-1.27-0.727-0.381-1.47-0.732-2.2-1.1l-0.275 0.552c0.683 0.422 1.37 0.826 2.04 1.26 0.646 0.474 1.3 0.925 1.93 1.41 0.607 0.517 1.23 1.02 1.82 1.54l1.72 1.65 1.6 1.75 1.48 1.85 1.34 1.95c0.411 0.669 0.792 1.36 1.19 2.03 0.367 0.689 0.681 1.4 1.02 2.1 0.313 0.709 0.554 1.45 0.836 2.16 0.252 0.728 0.414 1.48 0.627 2.21 0.177 0.741 0.253 1.5 0.394 2.24 0.091 0.748 0.092 1.5 0.149 2.24-0.017 0.745-0.099 1.48-0.137 2.22l-0.436 2.16-0.735 2.06 2.27-0.906c-0.377-0.157-0.782-0.342-1.14-0.467-0.356-0.118-0.732-0.255-1.08-0.356l-2.02-0.61-0.951-0.307-0.891-0.329-0.804-0.363c-0.233-0.134-0.44-0.271-0.665-0.397l-6.6-3.67 3.91 6.31c0.666 1.07 1.34 2.13 2.03 3.17l2.06 3.07c0.676 1.01 1.33 2.02 1.96 3.03l0.907 1.52 0.836 1.53 0.745 1.55 0.646 1.56c0.171 0.526 0.366 1.05 0.521 1.58 0.124 0.532 0.284 1.06 0.384 1.59 0.073 0.535 0.193 1.06 0.237 1.6 0.023 0.537 0.092 1.07 0.087 1.6-0.027 0.537-0.02 1.07-0.064 1.61l-0.206 1.6 2.06-2.12c-0.387 0.024-0.772 0.058-1.16 0.099-0.384-9e-3 -0.766-0.048-1.15-0.057-0.192-0.015-0.379-0.075-0.57-0.107l-0.568-0.108c-0.375-0.111-0.744-0.254-1.12-0.368-0.364-0.163-0.725-0.348-1.09-0.511l-1.05-0.642-1.01-0.753-0.951-0.854-3.95 3.89c1.65 1.84 3.27 3.6 4.8 5.39 0.759 0.896 1.5 1.8 2.2 2.71 0.695 0.915 1.37 1.84 1.98 2.78s1.18 1.89 1.65 2.85c0.266 0.478 0.462 0.966 0.664 1.45 0.226 0.484 0.384 0.973 0.532 1.46 0.181 0.486 0.29 0.974 0.388 1.46 0.051 0.242 0.119 0.484 0.158 0.726l0.071 0.722c0.022 0.236 0.064 0.49 0.074 0.712l-0.016 0.608c-4e-3 0.21 0.015 0.388 6e-3 0.625l-0.135 0.9-0.136 0.899c0.016-0.088-0.038 0.217 0.035-0.193l-2e-3 0.011-6e-3 0.024-0.013 0.048-0.024 0.094-0.048 0.19-0.096 0.38c-0.119 0.512-0.285 0.978-0.444 1.44-0.324 0.91-0.756 1.68-1.18 2.14-0.446 0.45-0.745 0.615-1.22 0.695-0.487 0.061-1.22 5e-3 -2.08-0.294-1.72-0.574-3.63-1.75-5.47-3.06-1.84-1.33-3.69-2.79-5.59-4.32l-4.58 4.72c2.05 2.41 4 4.98 5.81 7.62 1.81 2.63 3.47 5.36 4.91 8.14 1.43 2.78 2.68 5.64 3.39 8.5 0.713 2.84 0.863 5.68 0.018 7.9-0.092 0.294-0.203 0.437-0.281 0.675-7e-3 0.077-0.184 0.32-0.273 0.476l-0.325 0.528-0.497 0.643c-0.188 0.277-0.404 0.426-0.597 0.653-0.196 0.242-0.4 0.319-0.587 0.502-0.191 0.148-0.37 0.206-0.54 0.325-0.339 0.099-0.613 0.22-0.962 0.164-0.681-6e-3 -1.76-0.568-2.78-1.4-1.04-0.844-2.04-1.95-2.99-3.14-1.9-2.4-3.6-5.12-5.22-7.93-0.811-1.41-1.6-2.84-2.4-4.29-0.815-1.46-1.58-2.89-2.63-4.5l-4.56 3.04c1.8 2.68 3.29 5.58 4.51 8.63 1.17 3.07 2.07 6.26 2.74 9.52 0.598 3.27 0.982 6.59 1.13 9.94 0.082 3.34 0.022 6.71-0.392 10-0.06 0.839-0.233 1.66-0.349 2.49-0.129 0.83-0.241 1.66-0.436 2.48l-0.527 2.46-0.656 2.39c-0.185 0.788-0.519 1.62-0.791 2.43l-0.425 1.23c-0.103 0.314-0.292 0.769-0.438 1.14-0.627 1.57-1.31 3.12-2.05 4.63-0.747 1.5-1.56 2.96-2.5 4.29-0.925 1.31-2.02 2.56-3.19 3.12-0.578 0.271-1.1 0.339-1.62 0.191-0.525-0.167-1.09-0.565-1.57-1.13-0.983-1.1-1.76-2.65-2.27-4.11-0.996-3.08-1.16-6.53-1.16-9.93 0.035-3.41 0.314-6.85 0.563-10.3 0.257-3.44 0.485-7 0.351-10.5 4e-3 -3.48-0.235-6.95-0.418-10.4-0.45-6.95-1.34-13.9-2.41-20.7-1.12-6.88-2.68-13.7-4.49-20.4-1.79-6.76-4.08-13.4-6.63-19.9-0.664-1.62-1.29-3.26-2-4.86l-2.17-4.79c-0.719-1.6-1.54-3.15-2.31-4.73-0.395-0.784-0.77-1.58-1.18-2.35l-1.29-2.32c-0.87-1.53-1.7-3.14-2.61-4.58l-2.72-4.48c-0.978-1.47-1.97-2.93-2.97-4.38-0.503-0.725-0.986-1.46-1.51-2.18l-1.62-2.1c-4.23-5.67-9.08-10.9-14.2-15.7-5.11-4.84-10.6-9.18-16.2-13.4l-4.18-3.08c-1.43-1.06-2.85-2.04-4.27-3.04l-8.46-5.97c-5.6-4-11.1-8.13-16.3-12.6-2.56-2.27-5.07-4.61-7.27-7.19-1.1-1.29-2.12-2.65-2.96-4.1-0.418-0.726-0.786-1.48-1.05-2.27-0.171-0.392-0.214-0.778-0.326-1.17-0.098-0.394-0.089-0.853-0.139-1.28z" fill="#007ace"/></g><g transform="translate(405 163)"><path d="m0 0c1.1-2.75 2.11-5.51 3.18-8.26 1.06-2.75 2.14-5.49 3.24-8.22 2.21-5.46 4.5-10.9 6.92-16.2 4.87-10.7 10.2-21.2 16.3-31.2 3.1-4.97 6.4-9.8 10-14.4 3.63-4.53 7.59-8.81 12-12.4 2.23-1.79 4.57-3.42 7.04-4.77 0.628-0.303 1.24-0.683 1.88-0.924 0.361-0.157 0.601-0.234 0.917-0.353 0.312-0.106 0.623-0.214 0.939-0.299 1.25-0.364 2.54-0.552 3.73-0.505 1.19 0.049 2.27 0.339 3.06 0.888 0.797 0.531 1.38 1.28 1.76 2.29 0.775 2.03 0.645 4.77 0.178 7.4l5.12 0.822c0.242-1.18 0.84-2.37 1.78-3.42 0.93-1.06 2.13-1.99 3.46-2.73 2.65-1.5 5.82-2.29 8.76-2.21 1.47 0.038 2.88 0.324 4.09 0.885 1.21 0.556 2.19 1.38 2.93 2.44 0.758 1.05 1.26 2.37 1.52 3.83 0.14 0.726 0.2 1.49 0.228 2.27 0.039 0.777-0.02 1.58-0.056 2.38l-0.35 8.03 4.78-6.15c0.537-0.69 1.49-1.45 2.49-2.09 1.01-0.652 2.12-1.23 3.26-1.73 2.29-0.984 4.74-1.72 7.14-1.92 2.38-0.203 4.75 0.192 6.06 1.61 0.668 0.692 1.11 1.66 1.31 2.79 0.209 1.12 0.185 2.36 0.04 3.61l0.427-0.829c-0.298 0.635-1.15 1.17 0.479 2.42 2.12 0.02 0.673-0.028 1.15-0.028l0.103-0.053 0.068-0.039 0.081-0.052 0.136-0.088 0.258-0.167 0.514-0.327 1.04-0.634c0.7-0.414 1.41-0.807 2.14-1.18 1.46-0.725 2.96-1.37 4.48-1.9 3.05-1.08 6.32-1.59 9.43-1.16 1.55 0.247 3.02 0.788 4.32 1.61 1.3 0.822 2.42 1.92 3.28 3.22 1.76 2.59 2.66 5.75 3.1 8.93l0.017-0.547c-1 3.67-3.26 6.91-5.94 9.7-2.71 2.8-5.87 5.2-9.17 7.4-3.32 2.18-6.77 4.23-10.3 6.15-3.52 1.94-7.1 3.8-10.7 5.63-7.22 3.68-14.6 7.19-21.9 10.9-3.64 1.86-7.28 3.76-10.9 5.74-3.59 2.01-7.15 4.09-10.7 6.27-3.52 2.17-6.94 4.52-10.3 6.99-3.35 2.47-6.6 5.08-9.72 7.87-3.1 2.81-6.05 5.8-8.8 8.98-2.76 3.18-5.25 6.59-7.45 10.2-4.42 7.18-7.48 15.2-8.74 23.5-0.651 4.13-0.868 8.31-0.682 12.4 0.157 4.14 0.678 8.23 1.54 12.2l0.61-0.089c-0.273-4.06-0.361-8.11-0.081-12.1 0.273-4.01 0.902-7.97 1.83-11.8 0.956-3.86 2.25-7.61 3.89-11.2 1.65-3.58 3.61-7 5.84-10.2 4.5-6.45 10-12.2 16.1-17.3 3.02-2.56 6.18-4.99 9.44-7.29 3.26-2.3 6.63-4.45 10-6.61 3.4-2.13 6.87-4.17 10.4-6.15 3.5-2.01 7.03-3.97 10.6-5.9 7.13-3.85 14.4-7.63 21.5-11.6 3.59-1.98 7.16-4 10.7-6.16 3.5-2.18 6.97-4.46 10.3-7.02 3.3-2.56 6.47-5.35 9.21-8.62 2.73-3.25 5-7.1 5.93-11.4l0.068-0.311-0.051-0.237c-0.367-1.69-0.86-3.37-1.5-5-0.636-1.63-1.45-3.22-2.53-4.66-1.08-1.43-2.39-2.71-3.94-3.66-1.55-0.949-3.29-1.54-5.04-1.81-1.76-0.297-3.54-0.291-5.27-0.098-1.73 0.202-3.43 0.577-5.1 1.03-1.66 0.465-3.29 1.05-4.87 1.72-0.797 0.323-1.58 0.668-2.36 1.04l-1.16 0.567-0.575 0.296-0.284 0.148-0.134 0.071-0.054 0.027c-9e-3 4e-3 -0.013 6e-3 -2e-3 -1e-3l0.069-0.034c0.474 2e-3 -0.976-0.043 1.13-0.023 1.62 1.26 0.779 1.78 0.483 2.41l0.426-0.83c0.252-1.43 0.385-2.93 0.218-4.5-0.162-1.56-0.708-3.24-1.83-4.6-1.11-1.38-2.68-2.29-4.23-2.76-1.56-0.489-3.12-0.632-4.64-0.617-3.03 0.057-5.91 0.694-8.67 1.7-1.38 0.51-2.73 1.11-4.04 1.86-1.32 0.766-2.61 1.6-3.86 2.96l4.43 1.88c0.235-1.93 0.292-3.93 4e-3 -5.99-0.293-2.05-0.949-4.18-2.2-6.07-1.25-1.9-3.1-3.42-5.11-4.36-2.02-0.955-4.17-1.37-6.25-1.44-2.08-0.081-4.12 0.227-6.07 0.746-1.95 0.531-3.82 1.31-5.57 2.33-1.75 1.03-3.4 2.32-4.79 3.96-1.38 1.62-2.52 3.69-2.87 6.03l5.12 0.823c0.205-1.58 0.318-3.21 0.233-4.89-0.081-1.67-0.381-3.43-1.12-5.16-0.731-1.72-2.07-3.4-3.83-4.36-1.74-0.996-3.67-1.28-5.42-1.23-1.76 0.062-3.41 0.447-4.95 1.01-0.389 0.136-0.765 0.296-1.14 0.454-0.363 0.166-0.811 0.359-1.11 0.529l-2.05 1.11c-2.68 1.54-5.16 3.34-7.48 5.29-4.64 3.92-8.64 8.45-12.3 13.2-3.63 4.75-6.9 9.74-9.9 14.9-3.01 5.13-5.77 10.4-8.36 15.7-2.59 5.33-5.01 10.7-7.28 16.2-2.27 5.46-4.41 11-6.44 16.5-1.01 2.78-1.99 5.56-2.95 8.35-0.966 2.79-1.88 5.6-2.87 8.36z" fill="#007ace"/></g><g transform="translate(392 318)"><path d="m0 0c-3.27 1.8-6.31 4.06-9.13 6.55-2.81 2.5-5.42 5.21-7.9 8.01-2.47 2.81-4.84 5.7-7.16 8.58-2.31 2.9-4.6 5.79-6.96 8.6-2.36 2.8-4.72 5.56-7.26 8.1-2.53 2.54-5.23 4.87-8.08 6.87-2.86 1.99-5.93 3.61-9.17 4.67-3.24 1.05-6.62 1.64-10.1 1.7-3.47 0.029-6.89-0.314-10.2-1.17-3.33-0.877-6.56-2.16-9.5-3.98-2.94-1.81-5.63-4.07-7.85-6.77-2.22-2.69-4.01-5.78-5.24-9.1-0.622-1.69-1.12-3.33-1.36-5.08-0.267-1.75-0.345-3.57-0.402-5.41-0.128-3.67-0.139-7.52-1.24-11.3-0.282-0.936-0.644-1.86-1.1-2.74-0.127-0.229-0.21-0.414-0.373-0.678l-0.369-0.588c-0.219-0.385-0.574-0.811-0.86-1.21-1.22-1.55-2.65-2.84-4.13-4.03-2.95-2.37-6.18-4.24-8.72-6.72l-0.728 1.79c5.26 0.156 10.5 0.976 15.9 1.44 2.7 0.223 5.43 0.387 8.21 0.243 2.77-0.136 5.62-0.554 8.36-1.54 2.74-0.961 5.35-2.52 7.49-4.55 1.1-0.994 2.04-2.12 2.94-3.28l0.631-0.89c0.116-0.172 0.181-0.249 0.339-0.499l0.263-0.426 0.527-0.856 0.541-0.983c1.4-2.57 2.36-5.25 3.11-7.99 0.713-2.74 1.16-5.52 1.46-8.28 0.557-5.54 0.442-11 0.189-16.4-0.251-5.38-0.708-10.8-0.854-15.9-0.051-2.72-0.076-5.24 0.029-7.85 0.087-2.6 0.247-5.19 0.473-7.77 0.472-5.16 1.32-10.3 2.57-15.3 1.19-5.01 2.89-9.87 5.02-14.5 1.1-2.31 2.29-4.57 3.58-6.78 1.34-2.17 2.73-4.33 4.31-6.34 0.755-1.03 1.61-1.99 2.42-2.98 0.862-0.947 1.7-1.92 2.6-2.82 1.76-1.87 3.68-3.58 5.65-5.24 4-3.24 8.32-6.14 12.9-8.57 4.72-2.4 9.56-4.77 14.3-7.32 4.73-2.55 9.42-5.18 13.9-8.12 4.52-2.93 8.93-6.06 13-9.64 4.02-3.58 7.8-7.64 10.1-12.6l-0.553-0.275c-1.28 2.31-2.94 4.38-4.76 6.28-1.82 1.9-3.8 3.65-5.88 5.28-4.15 3.27-8.65 6.08-13.3 8.7-4.61 2.6-9.33 5.03-14.1 7.32-4.8 2.29-9.64 4.43-14.5 6.69-4.98 2.24-9.78 5-14.2 8.28-4.43 3.3-8.55 7.1-12.1 11.4-3.56 4.28-6.62 8.99-9.06 14-2.43 5.01-4.36 10.2-5.76 15.6-1.41 5.36-2.23 10.8-2.74 16.3-0.24 2.74-0.395 5.48-0.409 8.22-0.054 2.72 0.036 5.55 0.141 8.17 0.268 5.54 0.862 10.8 1.26 16.1 0.404 5.26 0.615 10.5 0.282 15.6-0.356 5.09-1.3 10.1-3.37 14.6l-0.378 0.796-0.478 0.874-0.241 0.439-0.211 0.339-0.478 0.777c-0.673 1-1.39 1.98-2.22 2.84-1.63 1.75-3.61 3.14-5.85 4.1-4.5 1.95-9.8 2.2-15 2.06-5.27-0.163-10.6-0.741-16-0.767l-2.76-0.013 2.03 1.81c2.89 2.58 6.12 4.47 8.97 6.69 1.42 1.11 2.77 2.3 3.81 3.69 0.242 0.359 0.495 0.637 0.732 1.06l0.36 0.593c0.081 0.13 0.192 0.367 0.286 0.544 0.384 0.773 0.69 1.59 0.93 2.42 0.983 3.38 0.83 7.06 0.795 10.8-0.016 1.86-0.019 3.75 0.131 5.68 0.135 1.94 0.587 3.9 1.13 5.72 1.1 3.7 2.77 7.27 5.04 10.5 2.26 3.2 5.09 6.04 8.33 8.31 3.24 2.27 6.84 4.04 10.6 5.15 3.78 1.13 7.78 1.71 11.7 1.65 3.96-0.04 7.98-0.656 11.8-2 3.78-1.32 7.3-3.26 10.5-5.55 3.19-2.28 6-4.96 8.59-7.76 2.59-2.81 4.98-5.73 7.22-8.74 2.24-3 4.38-6.05 6.52-9.07 2.12-3.03 4.22-6.06 6.43-8.99 2.2-2.94 4.46-5.82 6.94-8.51 2.46-2.7 5.12-5.23 8.07-7.46z" fill="#007ace"/></g><g transform="translate(305 337)"><path d="m0 0c1.31 4.25 6.74 14.5 12.5 9.28 9.19-8.42-10.9-7.26-12-8.76" fill="#007ace"/></g></g></g></svg>
